<svg xmlns="http://www.w3.org/2000/svg" version="1.1" xmlns:xlink="http://www.w3.org/1999/xlink" width="512" height="512" x="0" y="0" viewBox="0 0 24 24" style="enable-background:new 0 0 512 512" xml:space="preserve" class=""><g><g fill="#000"><path d="M7.25 8A.75.75 0 0 1 8 7.25h4a.75.75 0 0 1 0 1.5H8A.75.75 0 0 1 7.25 8zM7.25 12a.75.75 0 0 1 .75-.75h8a.75.75 0 0 1 0 1.5H8a.75.75 0 0 1-.75-.75z" fill="#000000" opacity="1" data-original="#000000" class=""></path><path fill-rule="evenodd" d="M9.966 1.25h4.068c1.371 0 2.447 0 3.311.07.88.073 1.607.221 2.265.557a5.75 5.75 0 0 1 2.513 2.513c.336.658.484 1.385.556 2.265.071.864.071 1.94.071 3.311v1.365c0 1.549 0 2.493-.232 3.287a5.75 5.75 0 0 1-3.9 3.9c-.794.232-1.738.232-3.287.232h-.756a4.25 4.25 0 0 0-2.42.776l-.05.035-2.61 1.865C7.99 22.5 6.012 20.948 6.7 19.232a.351.351 0 0 0-.327-.482h-.601a4.522 4.522 0 0 1-4.522-4.522V9.966c0-1.371 0-2.447.07-3.311.073-.88.221-1.607.557-2.265A5.75 5.75 0 0 1 4.39 1.877c.658-.336 1.385-.484 2.265-.556.864-.071 1.94-.071 3.311-.071zM6.777 2.816c-.787.064-1.295.188-1.706.397a4.25 4.25 0 0 0-1.858 1.858c-.21.411-.333.919-.397 1.706-.065.796-.066 1.81-.066 3.223v4.228a3.022 3.022 0 0 0 3.022 3.022h.601a1.851 1.851 0 0 1 1.72 2.539c-.131.326.244.62.53.416L11.29 18.3a5.75 5.75 0 0 1 3.276-1.05H15.184c1.742 0 2.452-.008 3.012-.172a4.25 4.25 0 0 0 2.882-2.882c.164-.56.172-1.27.172-3.012V10c0-1.413 0-2.427-.066-3.223-.064-.787-.188-1.295-.397-1.706a4.25 4.25 0 0 0-1.857-1.858c-.412-.21-.92-.333-1.707-.397-.796-.065-1.81-.066-3.223-.066h-4c-1.413 0-2.427 0-3.223.066z" clip-rule="evenodd" fill="#000000" opacity="1" data-original="#000000" class=""></path></g></g></svg>