<svg xmlns="http://www.w3.org/2000/svg" version="1.1" xmlns:xlink="http://www.w3.org/1999/xlink" width="512" height="512" x="0" y="0" viewBox="0 0 512.012 512.012" style="enable-background:new 0 0 512 512" xml:space="preserve" class="hovered-paths"><g transform="matrix(0.8600000000000008,0,0,0.8600000000000008,35.84077758788297,35.84084381103503)"><path d="M255.999 512C114.614 511.999-.001 397.383 0 255.998A255.998 255.998 0 0 1 74.98 74.98c99.989-99.971 262.089-99.956 362.059.033 87.177 87.193 99.82 224.139 30.081 325.819 3.229 13.319 21.796 50.976 38.887 81.044 4.829 8.496 1.857 19.298-6.638 24.127a17.695 17.695 0 0 1-17.224.148c-.179-.101-18.091-9.859-38.23-19.527-28.226-13.549-40.43-17.189-45.051-18.167A254.406 254.406 0 0 1 255.999 512zm0-476.611c-121.645 0-220.61 98.965-220.61 220.61s98.965 220.611 220.61 220.611a219.228 219.228 0 0 0 126.409-39.783c9.909-6.943 23.155-3.859 35.991.506 8.31 2.831 18.691 7.099 30.901 12.717-5.691-11.766-10.051-21.759-12.979-29.751-5.41-14.762-7.64-26.513-.94-35.85A219.047 219.047 0 0 0 476.611 256c0-121.646-98.966-220.611-220.612-220.611z" fill="#000000" opacity="1" data-original="#000000" class="hovered-path"></path></g></svg>