<svg xmlns="http://www.w3.org/2000/svg" version="1.1" xmlns:xlink="http://www.w3.org/1999/xlink" width="512" height="512" x="0" y="0" viewBox="0 0 24 24" style="enable-background:new 0 0 512 512" xml:space="preserve" class=""><g transform="matrix(1.1500000000000004,0,0,1.1500000000000004,-1.7999999642372178,-1.7999249875545598)"><g fill="#000" fill-rule="evenodd" clip-rule="evenodd"><path d="M3.315 6.14a.75.75 0 0 1 .99-.38L12 9.18l7.696-3.42a.75.75 0 1 1 .609 1.37l-8 3.555a.75.75 0 0 1-.61 0l-8-3.555a.75.75 0 0 1-.38-.99z" fill="#000000" opacity="1" data-original="#000000" class=""></path><path d="M10.07 2.036a4.75 4.75 0 0 1 3.86 0l5 2.223a4.75 4.75 0 0 1 2.82 4.34V15.4a4.75 4.75 0 0 1-2.82 4.34l-5 2.223a4.75 4.75 0 0 1-3.86 0l-5-2.222a4.75 4.75 0 0 1-2.82-4.34V8.598a4.75 4.75 0 0 1 2.82-4.34zm3.25 1.371a3.25 3.25 0 0 0-2.64 0l-5 2.222A3.25 3.25 0 0 0 3.75 8.6V15.4a3.25 3.25 0 0 0 1.93 2.97l5 2.222c.84.374 1.8.374 2.64 0l5-2.222a3.25 3.25 0 0 0 1.93-2.97V8.6a3.25 3.25 0 0 0-1.93-2.97z" fill="#000000" opacity="1" data-original="#000000" class=""></path><path d="M12 9.25a.75.75 0 0 1 .75.75v11a.75.75 0 0 1-1.5 0V10a.75.75 0 0 1 .75-.75z" fill="#000000" opacity="1" data-original="#000000" class=""></path></g></g></svg>