<svg xmlns="http://www.w3.org/2000/svg" version="1.1" xmlns:xlink="http://www.w3.org/1999/xlink" width="512" height="512" x="0" y="0" viewBox="0 0 512 512" style="enable-background:new 0 0 512 512" xml:space="preserve" class=""><g><path d="m503.971 242.039-121.055-89.303c-9.814-7.24-23.72-.206-23.72 11.977v44.651h-29.768V44.651C329.429 20.031 309.398 0 284.777 0H46.637C22.063 0 1.986 20.027 1.986 44.651v343.264a44.56 44.56 0 0 0 19.884 37.152l119.07 79.38c29.642 19.762 69.42-1.572 69.42-37.152v-18.797h74.419c24.621 0 44.651-20.031 44.651-44.651V298.668h29.768v44.651c0 12.27 13.981 19.161 23.72 11.977l121.055-89.303c8.056-5.944 8.055-18.01-.002-23.954zM157.452 479.678l-119.07-79.38a14.853 14.853 0 0 1-6.628-12.384V44.65c0-1.834.349-3.583.958-5.206l137.171 68.586c4.885 2.442 10.708 6.95 10.708 14.553v344.711h.001c0 11.9-13.233 18.991-23.14 12.384zm142.21-75.831c0 8.207-6.677 14.884-14.884 14.884H210.36V122.584c0-17.537-9.901-32.546-27.163-41.178L79.919 29.768h204.859c8.207 0 14.884 6.677 14.884 14.884v164.714h-44.651c-8.22 0-14.884 6.664-14.884 14.884v59.535c0 8.22 6.664 14.884 14.884 14.884h44.651v105.178zm89.303-90.004v-30.059c0-8.22-6.664-14.884-14.884-14.884H269.895v-29.768h104.186c8.22 0 14.884-6.664 14.884-14.884V194.19l81.099 59.827-81.099 59.826z" fill="#000000" opacity="1" data-original="#000000"></path><path d="M135.941 209.365c-8.22 0-14.884 6.664-14.884 14.884v59.535c0 8.22 6.664 14.884 14.884 14.884s14.884-6.664 14.884-14.884v-59.535c-.001-8.22-6.665-14.884-14.884-14.884z" fill="#000000" opacity="1" data-original="#000000"></path></g></svg>