<svg xmlns="http://www.w3.org/2000/svg" version="1.1" xmlns:xlink="http://www.w3.org/1999/xlink" width="512" height="512" x="0" y="0" viewBox="0 0 512 512" style="enable-background:new 0 0 512 512" xml:space="preserve" class=""><g transform="matrix(0.8600000000000003,0,0,0.8600000000000003,35.83999999999992,35.83999999999992)"><path d="m433.798 106.268-96.423-91.222C327.119 5.343 313.695 0 299.577 0H116C85.673 0 61 24.673 61 55v402c0 30.327 24.673 55 55 55h280c30.327 0 55-24.673 55-55V146.222c0-15.049-6.27-29.612-17.202-39.954zM404.661 120H330c-2.757 0-5-2.243-5-5V44.636zM396 482H116c-13.785 0-25-11.215-25-25V55c0-13.785 11.215-25 25-25h179v85c0 19.299 15.701 35 35 35h91v307c0 13.785-11.215 25-25 25z" fill="#000000" opacity="1" data-original="#000000" class=""></path><path d="M363 200H143c-8.284 0-15 6.716-15 15s6.716 15 15 15h220c8.284 0 15-6.716 15-15s-6.716-15-15-15zM363 280H143c-8.284 0-15 6.716-15 15s6.716 15 15 15h220c8.284 0 15-6.716 15-15s-6.716-15-15-15zM215.72 360H143c-8.284 0-15 6.716-15 15s6.716 15 15 15h72.72c8.284 0 15-6.716 15-15s-6.716-15-15-15z" fill="#000000" opacity="1" data-original="#000000" class=""></path></g></svg>