<svg xmlns="http://www.w3.org/2000/svg" version="1.1" xmlns:xlink="http://www.w3.org/1999/xlink" width="512" height="512" x="0" y="0" viewBox="0 0 24 24" style="enable-background:new 0 0 512 512" xml:space="preserve"><g transform="matrix(1.0999999999999988,0,0,1.0999999999999988,-1.2005854845046802,-1.1999999999999815)"><path d="M9.009 10.75a4.25 4.25 0 1 1 4.25-4.25 4.255 4.255 0 0 1-4.25 4.25zm0-7a2.75 2.75 0 1 0 2.75 2.75 2.752 2.752 0 0 0-2.75-2.75zm3.991 18H5c-2.42 0-3.753-1.325-3.753-3.731 0-2.662 1.506-5.769 5.75-5.769h4c4.244 0 5.75 3.107 5.75 5.769.003 2.406-1.33 3.731-3.747 3.731zm-6-8a3.958 3.958 0 0 0-4.25 4.269c0 1.564.674 2.231 2.253 2.231H13c1.579 0 2.253-.667 2.253-2.231A3.958 3.958 0 0 0 11 13.75zm9.56-2.56a3.415 3.415 0 0 1-2.4-.974.75.75 0 0 1 1.04-1.072 1.923 1.923 0 0 0 1.356.546 1.949 1.949 0 0 0 1.97-1.97 1.973 1.973 0 0 0-1.97-1.97 1.8 1.8 0 0 0-.828.187.75.75 0 0 1-.681-1.337 3.28 3.28 0 0 1 1.513-.35 3.47 3.47 0 1 1 0 6.94zm3.1 8.56h-.68a.75.75 0 0 1 0-1.5h.68c1.145 0 1.59-.44 1.59-1.57a2.922 2.922 0 0 0-3.14-3.15H16.6a.75.75 0 1 1 0-1.5h1.51a4.364 4.364 0 0 1 4.64 4.65 2.8 2.8 0 0 1-3.09 3.07z" fill="#000000" opacity="1" data-original="#000000"></path></g></svg>