<svg xmlns="http://www.w3.org/2000/svg" version="1.1" xmlns:xlink="http://www.w3.org/1999/xlink" width="512" height="512" x="0" y="0" viewBox="0 0 24 24" style="enable-background:new 0 0 512 512" xml:space="preserve"><g transform="matrix(1.4699999999999995,0,0,1.4699999999999995,-5.640000000000001,-5.640013895034789)"><path fill="#000000" fill-rule="evenodd" d="M12 11.75a2.75 2.75 0 1 0 0-5.5 2.75 2.75 0 0 0 0 5.5zm0-7a4.25 4.25 0 0 1 2.71 7.524 7.254 7.254 0 0 1 4.522 6.209.724.724 0 0 1-.732.767c-.42 0-.738-.338-.77-.73a5.75 5.75 0 0 0-11.46 0c-.033.392-.351.73-.77.73a.724.724 0 0 1-.732-.767 7.254 7.254 0 0 1 4.521-6.21A4.25 4.25 0 0 1 12 4.75z" clip-rule="evenodd" opacity="1" data-original="#000000"></path></g></svg>