<svg xmlns="http://www.w3.org/2000/svg" version="1.1" xmlns:xlink="http://www.w3.org/1999/xlink" width="512" height="512" x="0" y="0" viewBox="0 0 24 24" style="enable-background:new 0 0 512 512" xml:space="preserve" class=""><g transform="matrix(1.06,0,0,1.06,-0.7198444461822469,-0.7199451541900626)"><path d="m21.53 20.47-1.688-1.688a4.72 4.72 0 0 0 .257-5.182c-1.065-1.819-3.156-2.644-5.113-2.218 1.074-.957 1.763-2.333 1.763-3.883 0-2.895-2.355-5.25-5.25-5.25s-5.25 2.355-5.25 5.25c0 1.603.738 3.023 1.874 3.987a7.7 7.7 0 0 0-3.605 2.033 7.702 7.702 0 0 0-2.27 5.48 2.752 2.752 0 0 0 2.75 2.75h7a.75.75 0 0 0 0-1.5h-7c-.689 0-1.25-.561-1.25-1.25 0-1.669.65-3.239 1.83-4.42a6.212 6.212 0 0 1 4.42-1.83h2.563a4.702 4.702 0 0 0-1.159 2.047 4.723 4.723 0 0 0 .496 3.603 4.72 4.72 0 0 0 2.896 2.196 4.73 4.73 0 0 0 3.603-.496c.134-.078.247-.179.371-.269l1.699 1.699a.748.748 0 0 0 1.06 0 .75.75 0 0 0 0-1.061zM7.75 7.5c0-2.068 1.683-3.75 3.75-3.75s3.75 1.682 3.75 3.75-1.683 3.75-3.75 3.75S7.75 9.568 7.75 7.5zm11.395 9.323c-.22.84-.754 1.543-1.503 1.981s-1.623.559-2.465.34c-.84-.22-1.543-.754-1.981-1.503s-.56-1.625-.34-2.465.754-1.543 1.503-1.981a3.251 3.251 0 0 1 4.787 3.628z" fill="#000000" opacity="1" data-original="#000000" class=""></path></g></svg>