<svg xmlns="http://www.w3.org/2000/svg" version="1.1" xmlns:xlink="http://www.w3.org/1999/xlink" width="512" height="512" x="0" y="0" viewBox="0 0 6.35 6.35" style="enable-background:new 0 0 512 512" xml:space="preserve" class="hovered-paths"><g><path d="M3.04.257a1.677 1.677 0 0 0-.965 3.05A2.727 2.727 0 0 0 .36 5.834a.265.265 0 0 0 .529 0 2.19 2.19 0 0 1 3.346-1.865.265.265 0 1 0 .28-.452 2.716 2.716 0 0 0-.485-.23c.417-.305.69-.796.69-1.35 0-.923-.757-1.68-1.68-1.68zm0 .53c.637 0 1.15.513 1.15 1.15s-.513 1.149-1.15 1.149-1.149-.51-1.149-1.149c0-.637.51-1.15 1.148-1.15zm2.677 3.176a.265.265 0 0 0-.215.121L4.59 5.451l-.572-.383a.266.266 0 1 0-.295.442l.795.529a.265.265 0 0 0 .367-.074l1.059-1.588a.265.265 0 0 0-.227-.414z" paint-order="stroke fill markers" fill="#000000" opacity="1" data-original="#000000" class="hovered-path"></path></g></svg>