<svg xmlns="http://www.w3.org/2000/svg" version="1.1" xmlns:xlink="http://www.w3.org/1999/xlink" width="512" height="512" x="0" y="0" viewBox="0 0 512 512" style="enable-background:new 0 0 512 512" xml:space="preserve"><g><path d="M481.508 210.335 68.414 38.926c-17.403-7.222-37.063-4.045-51.309 8.287C2.859 59.547-3.099 78.55 1.557 96.808L42.151 256 1.557 415.192c-4.656 18.258 1.301 37.261 15.547 49.595 14.273 12.358 33.938 15.495 51.31 8.287l413.094-171.409C500.316 293.861 512 276.363 512 256s-11.684-37.861-30.492-45.665zm-11.499 63.62L56.916 445.364c-6.947 2.881-14.488 1.665-20.175-3.259-5.686-4.923-7.971-12.212-6.113-19.501L69.287 271h149.065c8.285 0 15.001-6.716 15.001-15.001s-6.716-15.001-15.001-15.001H69.288L30.628 89.396c-1.858-7.288.427-14.578 6.113-19.501 5.686-4.923 13.225-6.141 20.174-3.259l413.094 171.409c11.125 4.616 11.99 14.91 11.99 17.955s-.865 13.339-11.99 17.955z" fill="#000000" opacity="1" data-original="#000000"></path></g></svg>