<svg xmlns="http://www.w3.org/2000/svg" version="1.1" xmlns:xlink="http://www.w3.org/1999/xlink" width="512" height="512" x="0" y="0" viewBox="0 0 34 34" style="enable-background:new 0 0 512 512" xml:space="preserve" class=""><g><g data-name="Layer 2"><path d="M30 9a3 3 0 0 0-3-3h-5a5 5 0 0 0-10 0H7a2.993 2.993 0 0 0-1 5.816v16.448A4.741 4.741 0 0 0 10.735 33h12.53A4.741 4.741 0 0 0 28 28.264V11.816A3 3 0 0 0 30 9zM17 3a3 3 0 0 1 3 3h-6a3 3 0 0 1 3-3zm9 25.264A2.739 2.739 0 0 1 23.265 31h-12.53A2.739 2.739 0 0 1 8 28.264V12h18zM27 10H7a1 1 0 0 1 0-2h20a1 1 0 0 1 0 2z" fill="#000000" opacity="1" data-original="#000000" class=""></path><path d="M17 28a1 1 0 0 0 1-1V16a1 1 0 0 0-2 0v11a1 1 0 0 0 1 1zM21 27a1 1 0 0 0 1-1v-9a1 1 0 0 0-2 0v9a1 1 0 0 0 1 1zM13 27a1 1 0 0 0 1-1v-9a1 1 0 0 0-2 0v9a1 1 0 0 0 1 1z" fill="#000000" opacity="1" data-original="#000000" class=""></path></g></g></svg>