<svg xmlns="http://www.w3.org/2000/svg" version="1.1" xmlns:xlink="http://www.w3.org/1999/xlink" width="512" height="512" x="0" y="0" viewBox="0 0 24 24" style="enable-background:new 0 0 512 512" xml:space="preserve" class=""><g transform="matrix(1.0799999999999996,0,0,1.0799999999999996,-0.9992510223388642,-0.9992511749267532)"><path d="M10.009 10.75a4.25 4.25 0 1 0-4.25-4.25 4.255 4.255 0 0 0 4.25 4.25zm0-7a2.75 2.75 0 1 1-2.75 2.75 2.753 2.753 0 0 1 2.75-2.75zm2.872 10.06a5.634 5.634 0 0 0-.881-.06H8a3.959 3.959 0 0 0-4.25 4.27c0 1.563.673 2.23 2.25 2.23h5a.75.75 0 0 1 0 1.5H6c-2.418 0-3.75-1.325-3.75-3.73 0-2.662 1.506-5.77 5.75-5.77h4a6.957 6.957 0 0 1 1.119.08.75.75 0 1 1-.238 1.48zm9.649 7.66-1.83-1.832a4.1 4.1 0 1 0-1.062 1.062l1.832 1.83a.75.75 0 0 0 1.06-1.06zm-7.78-4.137a2.584 2.584 0 1 1 2.583 2.584 2.586 2.586 0 0 1-2.583-2.584z" fill="#000000" opacity="1" data-original="#000000"></path></g></svg>