<svg xmlns="http://www.w3.org/2000/svg" version="1.1" xmlns:xlink="http://www.w3.org/1999/xlink" width="512" height="512" x="0" y="0" viewBox="0 0 24 24" style="enable-background:new 0 0 512 512" xml:space="preserve" class=""><g transform="matrix(1.0899999999999994,0,0,1.0899999999999994,-1.1249999999999947,-1.079999999999993)"><path d="M11.009 10.75a4.25 4.25 0 1 0-4.25-4.25 4.255 4.255 0 0 0 4.25 4.25zm0-7a2.75 2.75 0 1 1-2.75 2.75 2.753 2.753 0 0 1 2.75-2.75zM4.75 18.02c0 1.563.673 2.23 2.25 2.23h7a.75.75 0 0 1 0 1.5H7c-2.418 0-3.75-1.325-3.75-3.73 0-2.662 1.506-5.77 5.75-5.77h4a5.807 5.807 0 0 1 3.729 1.165.75.75 0 1 1-.938 1.17A4.359 4.359 0 0 0 13 13.75H9a3.959 3.959 0 0 0-4.25 4.27zm17 .98a.75.75 0 0 1-.75.75h-1.25V21a.75.75 0 0 1-1.5 0v-1.25H17a.75.75 0 0 1 0-1.5h1.25V17a.75.75 0 0 1 1.5 0v1.25H21a.75.75 0 0 1 .75.75z" fill="#000000" opacity="1" data-original="#000000" class=""></path></g></svg>